<?xml version="1.0" encoding="UTF-8"?><svg id="Layer_1" xmlns="http://www.w3.org/2000/svg" viewBox="0 0 1920 1080"><path d="m673.12,541.04l-48.08-30.53v-4.74l-2.11,3.4-26.58-16.88-163.29,263.34v-168.19h-11.77l28.89-46.39-48.65-30.9v-3.36l-1.5,2.4-26.61-16.9L113.24,910.96l-4.91,7.91,75.72,49.43,150.16-241.06v168.65h11.87l-14.34,23.12,33.98,21.58,15.76,10.21.45.08,26.58,16.88,149.19-240.59v218.6h99.38v-358.31h-12.74l28.77-46.4Zm-49.69,61.74v327.63h-32.06v-313.95l-196.24,316.48-26.59-16.88,22.03-35.52h-22.7v-263.52l-196.83,315.99-25.98-16.96.56-.91,241.16-388.03,26.58,16.88-36.62,58.8h22.65v263.54l210.34-339.22,26.59,16.88-36.46,58.8h23.57Z" style="fill:#2ce6ff; stroke-width:0px;"/><path d="m1888,489.28v-50.1h-235.62v50.1h86.63l-46.73,192.39h-56.51v50.1h250.17v-50.1h-90.26l46.65-192.39h45.66Zm-201.96-15.34v-19.41h168.29v19.41h-168.29Zm166.24,223.08v19.41h-182.85v-19.41h182.85Zm-42.12-214.69l-50.69,209.04-35.1-2.38,51.14-210.53,35.13,1.91-.47,1.96Z" style="fill:#2ce6ff; stroke-width:0px;"/><path d="m1430.03,729.05l-31.08-30.8-39.12-42.48h5.45v-53.37h-282.13v53.37h26.74l6.44,372.37h98.6l-6.44-168.59h156.79v-54.86h-2.92l67.68-75.63Zm-313.23-111.31h214.81v22.68h-22.42l61.08,66.34-21.15,21.64-61.23-67.12,19.73-20.86h-190.83v-22.68Zm198.03,113.02l-60.59,68.11-5.16,5.8h-40.6v-148.91h47.97l-5.11,5.41,63.49,69.59Zm16.78,113.44h-156.79v165.46h-31.28v-359.77h31.28v170.14h125.11l-15.22-14.57.72-.81,86.12-96.81,21.79,21.59-81.08,90.61h19.34v24.18Z" style="fill:#2ce6ff; stroke-width:0px;"/><path d="m1744.73,790.51l-71.42,29.5-13.62,5.18-14.4.1h-93.59l-12.46-435.83h-99.47l13.11,455.1,25.92-.18v28.01h199.5l8.91,5.14,12.32-5.14,13.24-5.52-.18.07,94.23-39.28-62.12-37.15Zm-53.52,64.56l-12.25-7.07v9.04h-166.48v-12.72h-25.93l-6.29-185.76-6.29-253.76h34.14l8.31,313.22,4.15,122.61h152.93l66.67-27.54,21.25,12.71-70.22,29.27Z" style="fill:#2ce6ff; stroke-width:0px;"/><path d="m741.09,777.18l60.55,219.93h-85.64s0,52.02,0,52.02h243.68s0-52.02,0-52.02h-55.36s-60.66-219.93-60.66-219.93h69.75s0-52.02,0-52.02h-211.7s0,52.02,0,52.02h39.37Zm-5.71-15.34v-21.34h144.38v21.34h-144.38Zm190.64,250.61v21.34h-176.36v-21.34h176.36Zm-153.83-245.52l34.12-2.16,66.89,242.51-34.08,2.7-66.39-241.1-.54-1.95Z" style="fill:#2ce6ff; stroke-width:0px;"/><ellipse cx="1010" cy="887.08" rx="29" ry="28.35" style="fill:#2ce6ff; stroke-width:0px;"/><path d="m25.96,341v49.15h118.01v243.69h101.33v-243.69h118.01v-49.15H25.96Zm302.75,33.38h-118.01v243.69h-32.15v-243.69H60.55v-17.62h268.16v17.62Z" style="fill:#2ce6ff; stroke-width:0px;"/></svg>